{
    "asset" : {
        "generator" : "Khronos glTF Blender I/O v1.3.48",
        "version" : "2.0"
    },
    "scene" : 0,
    "scenes" : [
        {
            "name" : "Scene",
            "nodes" : [
                0
            ]
        }
    ],
    "nodes" : [
        {
            "mesh" : 0,
            "name" : "D65"
        }
    ],
    "materials" : [
        {
            "doubleSided" : true,
            "emissiveFactor" : [
                0,
                0,
                0
            ],
            "name" : "Metal",
            "pbrMetallicRoughness" : {
                "baseColorFactor" : [
                    0.800000011920929,
                    0.800000011920929,
                    0.800000011920929,
                    1
                ],
                "metallicFactor" : 0,
                "roughnessFactor" : 0.5
            }
        },
        {
            "doubleSided" : true,
            "emissiveFactor" : [
                0,
                0,
                0
            ],
            "name" : "Epiroc Yellow",
            "pbrMetallicRoughness" : {
                "baseColorFactor" : [
                    1,
                    0.7799999713897705,
                    0.17000000178813934,
                    1
                ],
                "metallicFactor" : 0,
                "roughnessFactor" : 0.5
            }
        },
        {
            "doubleSided" : true,
            "emissiveFactor" : [
                0,
                0,
                0
            ],
            "name" : "Epiroc Grey",
            "pbrMetallicRoughness" : {
                "baseColorFactor" : [
                    0.25999999046325684,
                    0.33000001311302185,
                    0.38999998569488525,
                    1
                ],
                "metallicFactor" : 0,
                "roughnessFactor" : 0.5
            }
        },
        {
            "doubleSided" : true,
            "emissiveFactor" : [
                0,
                0,
                0
            ],
            "name" : "Black",
            "pbrMetallicRoughness" : {
                "baseColorFactor" : [
                    0.11068911105394363,
                    0.11068911105394363,
                    0.11068911105394363,
                    1
                ],
                "metallicFactor" : 0,
                "roughnessFactor" : 0.5
            }
        }
    ],
    "meshes" : [
        {
            "name" : "Cube.002",
            "primitives" : [
                {
                    "attributes" : {
                        "POSITION" : 0,
                        "NORMAL" : 1,
                        "TEXCOORD_0" : 2,
                        "TEXCOORD_1" : 3
                    },
                    "indices" : 4,
                    "material" : 0
                },
                {
                    "attributes" : {
                        "POSITION" : 5,
                        "NORMAL" : 6,
                        "TEXCOORD_0" : 7,
                        "TEXCOORD_1" : 8
                    },
                    "indices" : 9,
                    "material" : 1
                },
                {
                    "attributes" : {
                        "POSITION" : 10,
                        "NORMAL" : 11,
                        "TEXCOORD_0" : 12,
                        "TEXCOORD_1" : 13
                    },
                    "indices" : 14,
                    "material" : 2
                },
                {
                    "attributes" : {
                        "POSITION" : 15,
                        "NORMAL" : 16,
                        "TEXCOORD_0" : 17,
                        "TEXCOORD_1" : 18
                    },
                    "indices" : 19,
                    "material" : 3
                }
            ]
        }
    ],
    "accessors" : [
        {
            "bufferView" : 0,
            "componentType" : 5126,
            "count" : 168,
            "max" : [
                0.8370974063873291,
                8.405277252197266,
                3.5971901416778564
            ],
            "min" : [
                -2.1073291301727295,
                0.23729968070983887,
                1.1090941429138184
            ],
            "type" : "VEC3"
        },
        {
            "bufferView" : 1,
            "componentType" : 5126,
            "count" : 168,
            "type" : "VEC3"
        },
        {
            "bufferView" : 2,
            "componentType" : 5126,
            "count" : 168,
            "type" : "VEC2"
        },
        {
            "bufferView" : 3,
            "componentType" : 5126,
            "count" : 168,
            "type" : "VEC2"
        },
        {
            "bufferView" : 4,
            "componentType" : 5123,
            "count" : 270,
            "type" : "SCALAR"
        },
        {
            "bufferView" : 5,
            "componentType" : 5126,
            "count" : 526,
            "max" : [
                1.1535223722457886,
                8.559762954711914,
                3.6682276725769043
            ],
            "min" : [
                -2.149129867553711,
                0.11489582061767578,
                -3.6036431789398193
            ],
            "type" : "VEC3"
        },
        {
            "bufferView" : 6,
            "componentType" : 5126,
            "count" : 526,
            "type" : "VEC3"
        },
        {
            "bufferView" : 7,
            "componentType" : 5126,
            "count" : 526,
            "type" : "VEC2"
        },
        {
            "bufferView" : 8,
            "componentType" : 5126,
            "count" : 526,
            "type" : "VEC2"
        },
        {
            "bufferView" : 9,
            "componentType" : 5123,
            "count" : 792,
            "type" : "SCALAR"
        },
        {
            "bufferView" : 10,
            "componentType" : 5126,
            "count" : 1854,
            "max" : [
                1.3269320726394653,
                7.737842082977295,
                3.7281079292297363
            ],
            "min" : [
                -1.9640872478485107,
                -0.0008381230290979147,
                -3.9823038578033447
            ],
            "type" : "VEC3"
        },
        {
            "bufferView" : 11,
            "componentType" : 5126,
            "count" : 1854,
            "type" : "VEC3"
        },
        {
            "bufferView" : 12,
            "componentType" : 5126,
            "count" : 1854,
            "type" : "VEC2"
        },
        {
            "bufferView" : 13,
            "componentType" : 5126,
            "count" : 1854,
            "type" : "VEC2"
        },
        {
            "bufferView" : 14,
            "componentType" : 5123,
            "count" : 2730,
            "type" : "SCALAR"
        },
        {
            "bufferView" : 15,
            "componentType" : 5126,
            "count" : 124,
            "max" : [
                1.0782519578933716,
                2.726032018661499,
                2.417781352996826
            ],
            "min" : [
                -0.5530930757522583,
                0.41981351375579834,
                -0.8186450600624084
            ],
            "type" : "VEC3"
        },
        {
            "bufferView" : 16,
            "componentType" : 5126,
            "count" : 124,
            "type" : "VEC3"
        },
        {
            "bufferView" : 17,
            "componentType" : 5126,
            "count" : 124,
            "type" : "VEC2"
        },
        {
            "bufferView" : 18,
            "componentType" : 5126,
            "count" : 124,
            "type" : "VEC2"
        },
        {
            "bufferView" : 19,
            "componentType" : 5123,
            "count" : 210,
            "type" : "SCALAR"
        }
    ],
    "bufferViews" : [
        {
            "buffer" : 0,
            "byteLength" : 2016,
            "byteOffset" : 0
        },
        {
            "buffer" : 0,
            "byteLength" : 2016,
            "byteOffset" : 2016
        },
        {
            "buffer" : 0,
            "byteLength" : 1344,
            "byteOffset" : 4032
        },
        {
            "buffer" : 0,
            "byteLength" : 1344,
            "byteOffset" : 5376
        },
        {
            "buffer" : 0,
            "byteLength" : 540,
            "byteOffset" : 6720
        },
        {
            "buffer" : 0,
            "byteLength" : 6312,
            "byteOffset" : 7260
        },
        {
            "buffer" : 0,
            "byteLength" : 6312,
            "byteOffset" : 13572
        },
        {
            "buffer" : 0,
            "byteLength" : 4208,
            "byteOffset" : 19884
        },
        {
            "buffer" : 0,
            "byteLength" : 4208,
            "byteOffset" : 24092
        },
        {
            "buffer" : 0,
            "byteLength" : 1584,
            "byteOffset" : 28300
        },
        {
            "buffer" : 0,
            "byteLength" : 22248,
            "byteOffset" : 29884
        },
        {
            "buffer" : 0,
            "byteLength" : 22248,
            "byteOffset" : 52132
        },
        {
            "buffer" : 0,
            "byteLength" : 14832,
            "byteOffset" : 74380
        },
        {
            "buffer" : 0,
            "byteLength" : 14832,
            "byteOffset" : 89212
        },
        {
            "buffer" : 0,
            "byteLength" : 5460,
            "byteOffset" : 104044
        },
        {
            "buffer" : 0,
            "byteLength" : 1488,
            "byteOffset" : 109504
        },
        {
            "buffer" : 0,
            "byteLength" : 1488,
            "byteOffset" : 110992
        },
        {
            "buffer" : 0,
            "byteLength" : 992,
            "byteOffset" : 112480
        },
        {
            "buffer" : 0,
            "byteLength" : 992,
            "byteOffset" : 113472
        },
        {
            "buffer" : 0,
            "byteLength" : 420,
            "byteOffset" : 114464
        }
    ],
    "buffers" : [
        {
            "byteLength" : 114884,
            "uri" : "data:application/octet-stream;base64,"
        }
    ]
}
