{
    "asset" : {
        "generator" : "Khronos glTF Blender I/O v1.3.48",
        "version" : "2.0"
    },
    "scene" : 0,
    "scenes" : [
        {
            "name" : "Scene",
            "nodes" : [
                0
            ]
        }
    ],
    "nodes" : [
        {
            "mesh" : 0,
            "name" : "D65_driverless"
        }
    ],
    "materials" : [
        {
            "doubleSided" : true,
            "emissiveFactor" : [
                0,
                0,
                0
            ],
            "name" : "Metal",
            "pbrMetallicRoughness" : {
                "baseColorFactor" : [
                    0.800000011920929,
                    0.800000011920929,
                    0.800000011920929,
                    1
                ],
                "metallicFactor" : 0,
                "roughnessFactor" : 0.5
            }
        },
        {
            "doubleSided" : true,
            "emissiveFactor" : [
                0,
                0,
                0
            ],
            "name" : "Epiroc Yellow",
            "pbrMetallicRoughness" : {
                "baseColorFactor" : [
                    1,
                    0.7799999713897705,
                    0.17000000178813934,
                    1
                ],
                "metallicFactor" : 0,
                "roughnessFactor" : 0.5
            }
        },
        {
            "doubleSided" : true,
            "emissiveFactor" : [
                0,
                0,
                0
            ],
            "name" : "Epiroc Grey",
            "pbrMetallicRoughness" : {
                "baseColorFactor" : [
                    0.25999999046325684,
                    0.33000001311302185,
                    0.38999998569488525,
                    1
                ],
                "metallicFactor" : 0,
                "roughnessFactor" : 0.5
            }
        },
        {
            "doubleSided" : true,
            "emissiveFactor" : [
                0,
                0,
                0
            ],
            "name" : "Black",
            "pbrMetallicRoughness" : {
                "baseColorFactor" : [
                    0.11068911105394363,
                    0.11068911105394363,
                    0.11068911105394363,
                    1
                ],
                "metallicFactor" : 0,
                "roughnessFactor" : 0.5
            }
        },
        {
            "doubleSided" : true,
            "emissiveFactor" : [
                0,
                0,
                0
            ],
            "name" : "Epiroc Grey.001",
            "pbrMetallicRoughness" : {
                "baseColorFactor" : [
                    0.25999999046325684,
                    0.33000001311302185,
                    0.38999998569488525,
                    1
                ],
                "metallicFactor" : 0,
                "roughnessFactor" : 0.5
            }
        },
        {
            "doubleSided" : true,
            "emissiveFactor" : [
                0,
                0,
                0
            ],
            "name" : "Epiroc Yellow.001",
            "pbrMetallicRoughness" : {
                "baseColorFactor" : [
                    1,
                    0.7799999713897705,
                    0.17000000178813934,
                    1
                ],
                "metallicFactor" : 0,
                "roughnessFactor" : 0.5
            }
        },
        {
            "doubleSided" : true,
            "emissiveFactor" : [
                0,
                0,
                0
            ],
            "name" : "Black.001",
            "pbrMetallicRoughness" : {
                "baseColorFactor" : [
                    0.11068911105394363,
                    0.11068911105394363,
                    0.11068911105394363,
                    1
                ],
                "metallicFactor" : 0,
                "roughnessFactor" : 0.5
            }
        }
    ],
    "meshes" : [
        {
            "name" : "Cube.006",
            "primitives" : [
                {
                    "attributes" : {
                        "POSITION" : 0,
                        "NORMAL" : 1,
                        "TEXCOORD_0" : 2,
                        "TEXCOORD_1" : 3
                    },
                    "indices" : 4,
                    "material" : 0
                },
                {
                    "attributes" : {
                        "POSITION" : 5,
                        "NORMAL" : 6,
                        "TEXCOORD_0" : 7,
                        "TEXCOORD_1" : 8
                    },
                    "indices" : 9,
                    "material" : 1
                },
                {
                    "attributes" : {
                        "POSITION" : 10,
                        "NORMAL" : 11,
                        "TEXCOORD_0" : 12,
                        "TEXCOORD_1" : 13
                    },
                    "indices" : 14,
                    "material" : 2
                },
                {
                    "attributes" : {
                        "POSITION" : 15,
                        "NORMAL" : 16,
                        "TEXCOORD_0" : 17,
                        "TEXCOORD_1" : 18
                    },
                    "indices" : 19,
                    "material" : 3
                },
                {
                    "attributes" : {
                        "POSITION" : 20,
                        "NORMAL" : 21,
                        "TEXCOORD_0" : 22,
                        "TEXCOORD_1" : 23
                    },
                    "indices" : 24,
                    "material" : 4
                },
                {
                    "attributes" : {
                        "POSITION" : 25,
                        "NORMAL" : 26,
                        "TEXCOORD_0" : 27,
                        "TEXCOORD_1" : 28
                    },
                    "indices" : 29,
                    "material" : 5
                },
                {
                    "attributes" : {
                        "POSITION" : 30,
                        "NORMAL" : 31,
                        "TEXCOORD_0" : 32,
                        "TEXCOORD_1" : 33
                    },
                    "indices" : 34,
                    "material" : 6
                }
            ]
        }
    ],
    "accessors" : [
        {
            "bufferView" : 0,
            "componentType" : 5126,
            "count" : 194,
            "max" : [
                0.35522812604904175,
                8.529474258422852,
                3.5971901416778564
            ],
            "min" : [
                -0.6559143662452698,
                0.08654485642910004,
                1.1090941429138184
            ],
            "type" : "VEC3"
        },
        {
            "bufferView" : 1,
            "componentType" : 5126,
            "count" : 194,
            "type" : "VEC3"
        },
        {
            "bufferView" : 2,
            "componentType" : 5126,
            "count" : 194,
            "type" : "VEC2"
        },
        {
            "bufferView" : 3,
            "componentType" : 5126,
            "count" : 194,
            "type" : "VEC2"
        },
        {
            "bufferView" : 4,
            "componentType" : 5123,
            "count" : 270,
            "type" : "SCALAR"
        },
        {
            "bufferView" : 5,
            "componentType" : 5126,
            "count" : 152,
            "max" : [
                1.122342824935913,
                8.660890579223633,
                3.6682276725769043
            ],
            "min" : [
                -1.122342824935913,
                0.07371261715888977,
                -3.6036431789398193
            ],
            "type" : "VEC3"
        },
        {
            "bufferView" : 6,
            "componentType" : 5126,
            "count" : 152,
            "type" : "VEC3"
        },
        {
            "bufferView" : 7,
            "componentType" : 5126,
            "count" : 152,
            "type" : "VEC2"
        },
        {
            "bufferView" : 8,
            "componentType" : 5126,
            "count" : 152,
            "type" : "VEC2"
        },
        {
            "bufferView" : 9,
            "componentType" : 5123,
            "count" : 228,
            "type" : "SCALAR"
        },
        {
            "bufferView" : 10,
            "componentType" : 5126,
            "count" : 1994,
            "max" : [
                1.3269320726394653,
                7.91302490234375,
                3.7281076908111572
            ],
            "min" : [
                -1.3269323110580444,
                -0.0008381230290979147,
                -3.9823038578033447
            ],
            "type" : "VEC3"
        },
        {
            "bufferView" : 11,
            "componentType" : 5126,
            "count" : 1994,
            "type" : "VEC3"
        },
        {
            "bufferView" : 12,
            "componentType" : 5126,
            "count" : 1994,
            "type" : "VEC2"
        },
        {
            "bufferView" : 13,
            "componentType" : 5126,
            "count" : 1994,
            "type" : "VEC2"
        },
        {
            "bufferView" : 14,
            "componentType" : 5123,
            "count" : 2730,
            "type" : "SCALAR"
        },
        {
            "bufferView" : 15,
            "componentType" : 5126,
            "count" : 132,
            "max" : [
                -0.38710853457450867,
                2.456852674484253,
                2.4177815914154053
            ],
            "min" : [
                -0.5856215953826904,
                0.41981348395347595,
                -0.04494787007570267
            ],
            "type" : "VEC3"
        },
        {
            "bufferView" : 16,
            "componentType" : 5126,
            "count" : 132,
            "type" : "VEC3"
        },
        {
            "bufferView" : 17,
            "componentType" : 5126,
            "count" : 132,
            "type" : "VEC2"
        },
        {
            "bufferView" : 18,
            "componentType" : 5126,
            "count" : 132,
            "type" : "VEC2"
        },
        {
            "bufferView" : 19,
            "componentType" : 5123,
            "count" : 168,
            "type" : "SCALAR"
        },
        {
            "bufferView" : 20,
            "componentType" : 5126,
            "count" : 32,
            "max" : [
                0.36904802918434143,
                2.523341417312622,
                -0.6006013751029968
            ],
            "min" : [
                0.33290624618530273,
                1.9980684518814087,
                -3.321852922439575
            ],
            "type" : "VEC3"
        },
        {
            "bufferView" : 21,
            "componentType" : 5126,
            "count" : 32,
            "type" : "VEC3"
        },
        {
            "bufferView" : 22,
            "componentType" : 5126,
            "count" : 32,
            "type" : "VEC2"
        },
        {
            "bufferView" : 23,
            "componentType" : 5126,
            "count" : 32,
            "type" : "VEC2"
        },
        {
            "bufferView" : 24,
            "componentType" : 5123,
            "count" : 48,
            "type" : "SCALAR"
        },
        {
            "bufferView" : 25,
            "componentType" : 5126,
            "count" : 464,
            "max" : [
                0.39584115147590637,
                2.649296283721924,
                -0.4118105173110962
            ],
            "min" : [
                -0.3429695665836334,
                2.257312059402466,
                -3.51064395904541
            ],
            "type" : "VEC3"
        },
        {
            "bufferView" : 26,
            "componentType" : 5126,
            "count" : 464,
            "type" : "VEC3"
        },
        {
            "bufferView" : 27,
            "componentType" : 5126,
            "count" : 464,
            "type" : "VEC2"
        },
        {
            "bufferView" : 28,
            "componentType" : 5126,
            "count" : 464,
            "type" : "VEC2"
        },
        {
            "bufferView" : 29,
            "componentType" : 5123,
            "count" : 696,
            "type" : "SCALAR"
        },
        {
            "bufferView" : 30,
            "componentType" : 5126,
            "count" : 72,
            "max" : [
                0.387026846408844,
                2.6337087154388428,
                -0.5277801752090454
            ],
            "min" : [
                -0.26467570662498474,
                2.2726426124572754,
                -3.394674301147461
            ],
            "type" : "VEC3"
        },
        {
            "bufferView" : 31,
            "componentType" : 5126,
            "count" : 72,
            "type" : "VEC3"
        },
        {
            "bufferView" : 32,
            "componentType" : 5126,
            "count" : 72,
            "type" : "VEC2"
        },
        {
            "bufferView" : 33,
            "componentType" : 5126,
            "count" : 72,
            "type" : "VEC2"
        },
        {
            "bufferView" : 34,
            "componentType" : 5123,
            "count" : 108,
            "type" : "SCALAR"
        }
    ],
    "bufferViews" : [
        {
            "buffer" : 0,
            "byteLength" : 2328,
            "byteOffset" : 0
        },
        {
            "buffer" : 0,
            "byteLength" : 2328,
            "byteOffset" : 2328
        },
        {
            "buffer" : 0,
            "byteLength" : 1552,
            "byteOffset" : 4656
        },
        {
            "buffer" : 0,
            "byteLength" : 1552,
            "byteOffset" : 6208
        },
        {
            "buffer" : 0,
            "byteLength" : 540,
            "byteOffset" : 7760
        },
        {
            "buffer" : 0,
            "byteLength" : 1824,
            "byteOffset" : 8300
        },
        {
            "buffer" : 0,
            "byteLength" : 1824,
            "byteOffset" : 10124
        },
        {
            "buffer" : 0,
            "byteLength" : 1216,
            "byteOffset" : 11948
        },
        {
            "buffer" : 0,
            "byteLength" : 1216,
            "byteOffset" : 13164
        },
        {
            "buffer" : 0,
            "byteLength" : 456,
            "byteOffset" : 14380
        },
        {
            "buffer" : 0,
            "byteLength" : 23928,
            "byteOffset" : 14836
        },
        {
            "buffer" : 0,
            "byteLength" : 23928,
            "byteOffset" : 38764
        },
        {
            "buffer" : 0,
            "byteLength" : 15952,
            "byteOffset" : 62692
        },
        {
            "buffer" : 0,
            "byteLength" : 15952,
            "byteOffset" : 78644
        },
        {
            "buffer" : 0,
            "byteLength" : 5460,
            "byteOffset" : 94596
        },
        {
            "buffer" : 0,
            "byteLength" : 1584,
            "byteOffset" : 100056
        },
        {
            "buffer" : 0,
            "byteLength" : 1584,
            "byteOffset" : 101640
        },
        {
            "buffer" : 0,
            "byteLength" : 1056,
            "byteOffset" : 103224
        },
        {
            "buffer" : 0,
            "byteLength" : 1056,
            "byteOffset" : 104280
        },
        {
            "buffer" : 0,
            "byteLength" : 336,
            "byteOffset" : 105336
        },
        {
            "buffer" : 0,
            "byteLength" : 384,
            "byteOffset" : 105672
        },
        {
            "buffer" : 0,
            "byteLength" : 384,
            "byteOffset" : 106056
        },
        {
            "buffer" : 0,
            "byteLength" : 256,
            "byteOffset" : 106440
        },
        {
            "buffer" : 0,
            "byteLength" : 256,
            "byteOffset" : 106696
        },
        {
            "buffer" : 0,
            "byteLength" : 96,
            "byteOffset" : 106952
        },
        {
            "buffer" : 0,
            "byteLength" : 5568,
            "byteOffset" : 107048
        },
        {
            "buffer" : 0,
            "byteLength" : 5568,
            "byteOffset" : 112616
        },
        {
            "buffer" : 0,
            "byteLength" : 3712,
            "byteOffset" : 118184
        },
        {
            "buffer" : 0,
            "byteLength" : 3712,
            "byteOffset" : 121896
        },
        {
            "buffer" : 0,
            "byteLength" : 1392,
            "byteOffset" : 125608
        },
        {
            "buffer" : 0,
            "byteLength" : 864,
            "byteOffset" : 127000
        },
        {
            "buffer" : 0,
            "byteLength" : 864,
            "byteOffset" : 127864
        },
        {
            "buffer" : 0,
            "byteLength" : 576,
            "byteOffset" : 128728
        },
        {
            "buffer" : 0,
            "byteLength" : 576,
            "byteOffset" : 129304
        },
        {
            "buffer" : 0,
            "byteLength" : 216,
            "byteOffset" : 129880
        }
    ],
    "buffers" : [
        {
            "byteLength" : 130096,
            "uri" : "data:application/octet-stream;base64,"
        }
    ]
}
