{
    "asset" : {
        "generator" : "Khronos glTF Blender I/O v1.3.48",
        "version" : "2.0"
    },
    "scene" : 0,
    "scenes" : [
        {
            "name" : "Scene",
            "nodes" : [
                0
            ]
        }
    ],
    "nodes" : [
        {
            "mesh" : 0,
            "name" : "T45"
        }
    ],
    "materials" : [
        {
            "doubleSided" : true,
            "emissiveFactor" : [
                0,
                0,
                0
            ],
            "name" : "Metal",
            "pbrMetallicRoughness" : {
                "baseColorFactor" : [
                    0.800000011920929,
                    0.800000011920929,
                    0.800000011920929,
                    1
                ],
                "metallicFactor" : 0,
                "roughnessFactor" : 0.5
            }
        },
        {
            "doubleSided" : true,
            "emissiveFactor" : [
                0,
                0,
                0
            ],
            "name" : "Black",
            "pbrMetallicRoughness" : {
                "baseColorFactor" : [
                    0.11068911105394363,
                    0.11068911105394363,
                    0.11068911105394363,
                    1
                ],
                "metallicFactor" : 0,
                "roughnessFactor" : 0.5
            }
        },
        {
            "doubleSided" : true,
            "emissiveFactor" : [
                0,
                0,
                0
            ],
            "name" : "Epiroc Grey",
            "pbrMetallicRoughness" : {
                "baseColorFactor" : [
                    0.25999999046325684,
                    0.33000001311302185,
                    0.38999998569488525,
                    1
                ],
                "metallicFactor" : 0,
                "roughnessFactor" : 0.5
            }
        },
        {
            "doubleSided" : true,
            "emissiveFactor" : [
                0,
                0,
                0
            ],
            "name" : "Epiroc Yellow",
            "pbrMetallicRoughness" : {
                "baseColorFactor" : [
                    1,
                    0.7799999713897705,
                    0.17000000178813934,
                    1
                ],
                "metallicFactor" : 0,
                "roughnessFactor" : 0.5
            }
        }
    ],
    "meshes" : [
        {
            "name" : "Cylinder.007",
            "primitives" : [
                {
                    "attributes" : {
                        "POSITION" : 0,
                        "NORMAL" : 1,
                        "TEXCOORD_0" : 2,
                        "TEXCOORD_1" : 3
                    },
                    "indices" : 4,
                    "material" : 0
                },
                {
                    "attributes" : {
                        "POSITION" : 5,
                        "NORMAL" : 6,
                        "TEXCOORD_0" : 7,
                        "TEXCOORD_1" : 8
                    },
                    "indices" : 9,
                    "material" : 1
                },
                {
                    "attributes" : {
                        "POSITION" : 10,
                        "NORMAL" : 11,
                        "TEXCOORD_0" : 12,
                        "TEXCOORD_1" : 13
                    },
                    "indices" : 14,
                    "material" : 2
                },
                {
                    "attributes" : {
                        "POSITION" : 15,
                        "NORMAL" : 16,
                        "TEXCOORD_0" : 17,
                        "TEXCOORD_1" : 18
                    },
                    "indices" : 19,
                    "material" : 3
                }
            ]
        }
    ],
    "accessors" : [
        {
            "bufferView" : 0,
            "componentType" : 5126,
            "count" : 248,
            "max" : [
                0.2658199369907379,
                5.474180698394775,
                4.664828777313232
            ],
            "min" : [
                -0.4079541265964508,
                0.0074274782091379166,
                1.1210699081420898
            ],
            "type" : "VEC3"
        },
        {
            "bufferView" : 1,
            "componentType" : 5126,
            "count" : 248,
            "type" : "VEC3"
        },
        {
            "bufferView" : 2,
            "componentType" : 5126,
            "count" : 248,
            "type" : "VEC2"
        },
        {
            "bufferView" : 3,
            "componentType" : 5126,
            "count" : 248,
            "type" : "VEC2"
        },
        {
            "bufferView" : 4,
            "componentType" : 5123,
            "count" : 402,
            "type" : "SCALAR"
        },
        {
            "bufferView" : 5,
            "componentType" : 5126,
            "count" : 220,
            "max" : [
                1.1158558130264282,
                2.974261999130249,
                3.6376945972442627
            ],
            "min" : [
                -0.4686417877674103,
                0.9993004202842712,
                -1.1508868932724
            ],
            "type" : "VEC3"
        },
        {
            "bufferView" : 6,
            "componentType" : 5126,
            "count" : 220,
            "type" : "VEC3"
        },
        {
            "bufferView" : 7,
            "componentType" : 5126,
            "count" : 220,
            "type" : "VEC2"
        },
        {
            "bufferView" : 8,
            "componentType" : 5126,
            "count" : 220,
            "type" : "VEC2"
        },
        {
            "bufferView" : 9,
            "componentType" : 5123,
            "count" : 378,
            "type" : "SCALAR"
        },
        {
            "bufferView" : 10,
            "componentType" : 5126,
            "count" : 2070,
            "max" : [
                1.1725627183914185,
                5.0750322341918945,
                4.749597549438477
            ],
            "min" : [
                -0.9667284488677979,
                0.016741394996643066,
                -3.6601738929748535
            ],
            "type" : "VEC3"
        },
        {
            "bufferView" : 11,
            "componentType" : 5126,
            "count" : 2070,
            "type" : "VEC3"
        },
        {
            "bufferView" : 12,
            "componentType" : 5126,
            "count" : 2070,
            "type" : "VEC2"
        },
        {
            "bufferView" : 13,
            "componentType" : 5126,
            "count" : 2070,
            "type" : "VEC2"
        },
        {
            "bufferView" : 14,
            "componentType" : 5123,
            "count" : 3060,
            "type" : "SCALAR"
        },
        {
            "bufferView" : 15,
            "componentType" : 5126,
            "count" : 486,
            "max" : [
                1.1290067434310913,
                5.559271812438965,
                4.710824966430664
            ],
            "min" : [
                -0.9025387167930603,
                -0.0008809328428469598,
                -3.109170436859131
            ],
            "type" : "VEC3"
        },
        {
            "bufferView" : 16,
            "componentType" : 5126,
            "count" : 486,
            "type" : "VEC3"
        },
        {
            "bufferView" : 17,
            "componentType" : 5126,
            "count" : 486,
            "type" : "VEC2"
        },
        {
            "bufferView" : 18,
            "componentType" : 5126,
            "count" : 486,
            "type" : "VEC2"
        },
        {
            "bufferView" : 19,
            "componentType" : 5123,
            "count" : 732,
            "type" : "SCALAR"
        }
    ],
    "bufferViews" : [
        {
            "buffer" : 0,
            "byteLength" : 2976,
            "byteOffset" : 0
        },
        {
            "buffer" : 0,
            "byteLength" : 2976,
            "byteOffset" : 2976
        },
        {
            "buffer" : 0,
            "byteLength" : 1984,
            "byteOffset" : 5952
        },
        {
            "buffer" : 0,
            "byteLength" : 1984,
            "byteOffset" : 7936
        },
        {
            "buffer" : 0,
            "byteLength" : 804,
            "byteOffset" : 9920
        },
        {
            "buffer" : 0,
            "byteLength" : 2640,
            "byteOffset" : 10724
        },
        {
            "buffer" : 0,
            "byteLength" : 2640,
            "byteOffset" : 13364
        },
        {
            "buffer" : 0,
            "byteLength" : 1760,
            "byteOffset" : 16004
        },
        {
            "buffer" : 0,
            "byteLength" : 1760,
            "byteOffset" : 17764
        },
        {
            "buffer" : 0,
            "byteLength" : 756,
            "byteOffset" : 19524
        },
        {
            "buffer" : 0,
            "byteLength" : 24840,
            "byteOffset" : 20280
        },
        {
            "buffer" : 0,
            "byteLength" : 24840,
            "byteOffset" : 45120
        },
        {
            "buffer" : 0,
            "byteLength" : 16560,
            "byteOffset" : 69960
        },
        {
            "buffer" : 0,
            "byteLength" : 16560,
            "byteOffset" : 86520
        },
        {
            "buffer" : 0,
            "byteLength" : 6120,
            "byteOffset" : 103080
        },
        {
            "buffer" : 0,
            "byteLength" : 5832,
            "byteOffset" : 109200
        },
        {
            "buffer" : 0,
            "byteLength" : 5832,
            "byteOffset" : 115032
        },
        {
            "buffer" : 0,
            "byteLength" : 3888,
            "byteOffset" : 120864
        },
        {
            "buffer" : 0,
            "byteLength" : 3888,
            "byteOffset" : 124752
        },
        {
            "buffer" : 0,
            "byteLength" : 1464,
            "byteOffset" : 128640
        }
    ],
    "buffers" : [
        {
            "byteLength" : 130104,
            "uri" : "data:application/octet-stream;base64,"
        }
    ]
}
