{
    "asset" : {
        "generator" : "Khronos glTF Blender I/O v1.3.48",
        "version" : "2.0"
    },
    "scene" : 0,
    "scenes" : [
        {
            "name" : "Scene",
            "nodes" : [
                0
            ]
        }
    ],
    "nodes" : [
        {
            "mesh" : 0,
            "name" : "PitViper"
        }
    ],
    "materials" : [
        {
            "doubleSided" : true,
            "emissiveFactor" : [
                0,
                0,
                0
            ],
            "name" : "Epiroc Grey",
            "pbrMetallicRoughness" : {
                "baseColorFactor" : [
                    0.25999999046325684,
                    0.33000001311302185,
                    0.38999998569488525,
                    1
                ],
                "metallicFactor" : 0,
                "roughnessFactor" : 0.5
            }
        },
        {
            "doubleSided" : true,
            "emissiveFactor" : [
                0,
                0,
                0
            ],
            "name" : "Epiroc Yellow",
            "pbrMetallicRoughness" : {
                "baseColorFactor" : [
                    1,
                    0.7799999713897705,
                    0.17000000178813934,
                    1
                ],
                "metallicFactor" : 0,
                "roughnessFactor" : 0.5
            }
        },
        {
            "doubleSided" : true,
            "emissiveFactor" : [
                0,
                0,
                0
            ],
            "name" : "Metal",
            "pbrMetallicRoughness" : {
                "baseColorFactor" : [
                    0.800000011920929,
                    0.800000011920929,
                    0.800000011920929,
                    1
                ],
                "metallicFactor" : 0,
                "roughnessFactor" : 0.5
            }
        },
        {
            "doubleSided" : true,
            "emissiveFactor" : [
                0,
                0,
                0
            ],
            "name" : "Black",
            "pbrMetallicRoughness" : {
                "baseColorFactor" : [
                    0.11068911105394363,
                    0.11068911105394363,
                    0.11068911105394363,
                    1
                ],
                "metallicFactor" : 0,
                "roughnessFactor" : 0.5
            }
        }
    ],
    "meshes" : [
        {
            "name" : "BezierCurve.142_6",
            "primitives" : [
                {
                    "attributes" : {
                        "POSITION" : 0,
                        "NORMAL" : 1,
                        "TEXCOORD_0" : 2,
                        "TEXCOORD_1" : 3
                    },
                    "indices" : 4,
                    "material" : 0
                },
                {
                    "attributes" : {
                        "POSITION" : 5,
                        "NORMAL" : 6,
                        "TEXCOORD_0" : 7,
                        "TEXCOORD_1" : 8
                    },
                    "indices" : 9,
                    "material" : 1
                },
                {
                    "attributes" : {
                        "POSITION" : 10,
                        "NORMAL" : 11,
                        "TEXCOORD_0" : 12,
                        "TEXCOORD_1" : 13
                    },
                    "indices" : 14,
                    "material" : 2
                },
                {
                    "attributes" : {
                        "POSITION" : 15,
                        "NORMAL" : 16,
                        "TEXCOORD_0" : 17,
                        "TEXCOORD_1" : 18
                    },
                    "indices" : 19,
                    "material" : 3
                }
            ]
        }
    ],
    "accessors" : [
        {
            "bufferView" : 0,
            "componentType" : 5126,
            "count" : 7977,
            "max" : [
                5.814149379730225,
                24.509321212768555,
                2.508272409439087
            ],
            "min" : [
                -6.173201560974121,
                0.0011708411620929837,
                -3.677640914916992
            ],
            "type" : "VEC3"
        },
        {
            "bufferView" : 1,
            "componentType" : 5126,
            "count" : 7977,
            "type" : "VEC3"
        },
        {
            "bufferView" : 2,
            "componentType" : 5126,
            "count" : 7977,
            "type" : "VEC2"
        },
        {
            "bufferView" : 3,
            "componentType" : 5126,
            "count" : 7977,
            "type" : "VEC2"
        },
        {
            "bufferView" : 4,
            "componentType" : 5123,
            "count" : 15621,
            "type" : "SCALAR"
        },
        {
            "bufferView" : 5,
            "componentType" : 5126,
            "count" : 5410,
            "max" : [
                5.806581020355225,
                22.92578887939453,
                2.4009013175964355
            ],
            "min" : [
                -6.15712833404541,
                1.6679353713989258,
                -3.648998260498047
            ],
            "type" : "VEC3"
        },
        {
            "bufferView" : 6,
            "componentType" : 5126,
            "count" : 5410,
            "type" : "VEC3"
        },
        {
            "bufferView" : 7,
            "componentType" : 5126,
            "count" : 5410,
            "type" : "VEC2"
        },
        {
            "bufferView" : 8,
            "componentType" : 5126,
            "count" : 5410,
            "type" : "VEC2"
        },
        {
            "bufferView" : 9,
            "componentType" : 5123,
            "count" : 10134,
            "type" : "SCALAR"
        },
        {
            "bufferView" : 10,
            "componentType" : 5126,
            "count" : 160,
            "max" : [
                2.3766510486602783,
                6.690908432006836,
                2.235320568084717
            ],
            "min" : [
                -5.176196098327637,
                0.5257346034049988,
                -2.9381985664367676
            ],
            "type" : "VEC3"
        },
        {
            "bufferView" : 11,
            "componentType" : 5126,
            "count" : 160,
            "type" : "VEC3"
        },
        {
            "bufferView" : 12,
            "componentType" : 5126,
            "count" : 160,
            "type" : "VEC2"
        },
        {
            "bufferView" : 13,
            "componentType" : 5126,
            "count" : 160,
            "type" : "VEC2"
        },
        {
            "bufferView" : 14,
            "componentType" : 5123,
            "count" : 324,
            "type" : "SCALAR"
        },
        {
            "bufferView" : 15,
            "componentType" : 5126,
            "count" : 32,
            "max" : [
                5.343259811401367,
                3.6556661128997803,
                -1.2958707809448242
            ],
            "min" : [
                3.249115228652954,
                2.150069236755371,
                -3.114649534225464
            ],
            "type" : "VEC3"
        },
        {
            "bufferView" : 16,
            "componentType" : 5126,
            "count" : 32,
            "type" : "VEC3"
        },
        {
            "bufferView" : 17,
            "componentType" : 5126,
            "count" : 32,
            "type" : "VEC2"
        },
        {
            "bufferView" : 18,
            "componentType" : 5126,
            "count" : 32,
            "type" : "VEC2"
        },
        {
            "bufferView" : 19,
            "componentType" : 5123,
            "count" : 48,
            "type" : "SCALAR"
        }
    ],
    "bufferViews" : [
        {
            "buffer" : 0,
            "byteLength" : 95724,
            "byteOffset" : 0
        },
        {
            "buffer" : 0,
            "byteLength" : 95724,
            "byteOffset" : 95724
        },
        {
            "buffer" : 0,
            "byteLength" : 63816,
            "byteOffset" : 191448
        },
        {
            "buffer" : 0,
            "byteLength" : 63816,
            "byteOffset" : 255264
        },
        {
            "buffer" : 0,
            "byteLength" : 31242,
            "byteOffset" : 319080
        },
        {
            "buffer" : 0,
            "byteLength" : 64920,
            "byteOffset" : 350324
        },
        {
            "buffer" : 0,
            "byteLength" : 64920,
            "byteOffset" : 415244
        },
        {
            "buffer" : 0,
            "byteLength" : 43280,
            "byteOffset" : 480164
        },
        {
            "buffer" : 0,
            "byteLength" : 43280,
            "byteOffset" : 523444
        },
        {
            "buffer" : 0,
            "byteLength" : 20268,
            "byteOffset" : 566724
        },
        {
            "buffer" : 0,
            "byteLength" : 1920,
            "byteOffset" : 586992
        },
        {
            "buffer" : 0,
            "byteLength" : 1920,
            "byteOffset" : 588912
        },
        {
            "buffer" : 0,
            "byteLength" : 1280,
            "byteOffset" : 590832
        },
        {
            "buffer" : 0,
            "byteLength" : 1280,
            "byteOffset" : 592112
        },
        {
            "buffer" : 0,
            "byteLength" : 648,
            "byteOffset" : 593392
        },
        {
            "buffer" : 0,
            "byteLength" : 384,
            "byteOffset" : 594040
        },
        {
            "buffer" : 0,
            "byteLength" : 384,
            "byteOffset" : 594424
        },
        {
            "buffer" : 0,
            "byteLength" : 256,
            "byteOffset" : 594808
        },
        {
            "buffer" : 0,
            "byteLength" : 256,
            "byteOffset" : 595064
        },
        {
            "buffer" : 0,
            "byteLength" : 96,
            "byteOffset" : 595320
        }
    ],
    "buffers" : [
        {
            "byteLength" : 595416,
            "uri" : "data:application/octet-stream;base64,"
        }
    ]
}
