{
    "asset" : {
        "generator" : "Khronos glTF Blender I/O v1.3.48",
        "version" : "2.0"
    },
    "scene" : 0,
    "scenes" : [
        {
            "name" : "Scene",
            "nodes" : [
                0
            ]
        }
    ],
    "nodes" : [
        {
            "mesh" : 0,
            "name" : "PitViper_driverless"
        }
    ],
    "materials" : [
        {
            "doubleSided" : true,
            "emissiveFactor" : [
                0,
                0,
                0
            ],
            "name" : "Epiroc Grey",
            "pbrMetallicRoughness" : {
                "baseColorFactor" : [
                    0.25999999046325684,
                    0.33000001311302185,
                    0.38999998569488525,
                    1
                ],
                "metallicFactor" : 0,
                "roughnessFactor" : 0.5
            }
        },
        {
            "doubleSided" : true,
            "emissiveFactor" : [
                0,
                0,
                0
            ],
            "name" : "Epiroc Yellow",
            "pbrMetallicRoughness" : {
                "baseColorFactor" : [
                    1,
                    0.7799999713897705,
                    0.17000000178813934,
                    1
                ],
                "metallicFactor" : 0,
                "roughnessFactor" : 0.5
            }
        },
        {
            "doubleSided" : true,
            "emissiveFactor" : [
                0,
                0,
                0
            ],
            "name" : "Metal",
            "pbrMetallicRoughness" : {
                "baseColorFactor" : [
                    0.800000011920929,
                    0.800000011920929,
                    0.800000011920929,
                    1
                ],
                "metallicFactor" : 0,
                "roughnessFactor" : 0.5
            }
        },
        {
            "doubleSided" : true,
            "emissiveFactor" : [
                0,
                0,
                0
            ],
            "name" : "Black",
            "pbrMetallicRoughness" : {
                "baseColorFactor" : [
                    0.11068911105394363,
                    0.11068911105394363,
                    0.11068911105394363,
                    1
                ],
                "metallicFactor" : 0,
                "roughnessFactor" : 0.5
            }
        }
    ],
    "meshes" : [
        {
            "name" : "BezierCurve.142_6.001",
            "primitives" : [
                {
                    "attributes" : {
                        "POSITION" : 0,
                        "NORMAL" : 1,
                        "TEXCOORD_0" : 2,
                        "TEXCOORD_1" : 3
                    },
                    "indices" : 4,
                    "material" : 0
                },
                {
                    "attributes" : {
                        "POSITION" : 5,
                        "NORMAL" : 6,
                        "TEXCOORD_0" : 7,
                        "TEXCOORD_1" : 8
                    },
                    "indices" : 9,
                    "material" : 1
                },
                {
                    "attributes" : {
                        "POSITION" : 10,
                        "NORMAL" : 11,
                        "TEXCOORD_0" : 12,
                        "TEXCOORD_1" : 13
                    },
                    "indices" : 14,
                    "material" : 2
                },
                {
                    "attributes" : {
                        "POSITION" : 15,
                        "NORMAL" : 16,
                        "TEXCOORD_0" : 17,
                        "TEXCOORD_1" : 18
                    },
                    "indices" : 19,
                    "material" : 3
                }
            ]
        }
    ],
    "accessors" : [
        {
            "bufferView" : 0,
            "componentType" : 5126,
            "count" : 10898,
            "max" : [
                5.127402305603027,
                24.509321212768555,
                2.508272409439087
            ],
            "min" : [
                -6.173202037811279,
                0.0011708412785083055,
                -3.6776411533355713
            ],
            "type" : "VEC3"
        },
        {
            "bufferView" : 1,
            "componentType" : 5126,
            "count" : 10898,
            "type" : "VEC3"
        },
        {
            "bufferView" : 2,
            "componentType" : 5126,
            "count" : 10898,
            "type" : "VEC2"
        },
        {
            "bufferView" : 3,
            "componentType" : 5126,
            "count" : 10898,
            "type" : "VEC2"
        },
        {
            "bufferView" : 4,
            "componentType" : 5123,
            "count" : 15366,
            "type" : "SCALAR"
        },
        {
            "bufferView" : 5,
            "componentType" : 5126,
            "count" : 7138,
            "max" : [
                5.10161018371582,
                22.92578887939453,
                2.4009013175964355
            ],
            "min" : [
                -6.157128810882568,
                1.6679354906082153,
                -3.645537853240967
            ],
            "type" : "VEC3"
        },
        {
            "bufferView" : 6,
            "componentType" : 5126,
            "count" : 7138,
            "type" : "VEC3"
        },
        {
            "bufferView" : 7,
            "componentType" : 5126,
            "count" : 7138,
            "type" : "VEC2"
        },
        {
            "bufferView" : 8,
            "componentType" : 5126,
            "count" : 7138,
            "type" : "VEC2"
        },
        {
            "bufferView" : 9,
            "componentType" : 5123,
            "count" : 10440,
            "type" : "SCALAR"
        },
        {
            "bufferView" : 10,
            "componentType" : 5126,
            "count" : 224,
            "max" : [
                2.3766510486602783,
                6.690908908843994,
                2.235320806503296
            ],
            "min" : [
                -5.176196575164795,
                0.5257346034049988,
                -2.9381988048553467
            ],
            "type" : "VEC3"
        },
        {
            "bufferView" : 11,
            "componentType" : 5126,
            "count" : 224,
            "type" : "VEC3"
        },
        {
            "bufferView" : 12,
            "componentType" : 5126,
            "count" : 224,
            "type" : "VEC2"
        },
        {
            "bufferView" : 13,
            "componentType" : 5126,
            "count" : 224,
            "type" : "VEC2"
        },
        {
            "bufferView" : 14,
            "componentType" : 5123,
            "count" : 324,
            "type" : "SCALAR"
        },
        {
            "bufferView" : 15,
            "componentType" : 5126,
            "count" : 72,
            "max" : [
                3.342440366744995,
                4.393954753875732,
                1.3439215421676636
            ],
            "min" : [
                -5.377470970153809,
                3.388108730316162,
                -1.0276367664337158
            ],
            "type" : "VEC3"
        },
        {
            "bufferView" : 16,
            "componentType" : 5126,
            "count" : 72,
            "type" : "VEC3"
        },
        {
            "bufferView" : 17,
            "componentType" : 5126,
            "count" : 72,
            "type" : "VEC2"
        },
        {
            "bufferView" : 18,
            "componentType" : 5126,
            "count" : 72,
            "type" : "VEC2"
        },
        {
            "bufferView" : 19,
            "componentType" : 5123,
            "count" : 108,
            "type" : "SCALAR"
        }
    ],
    "bufferViews" : [
        {
            "buffer" : 0,
            "byteLength" : 130776,
            "byteOffset" : 0
        },
        {
            "buffer" : 0,
            "byteLength" : 130776,
            "byteOffset" : 130776
        },
        {
            "buffer" : 0,
            "byteLength" : 87184,
            "byteOffset" : 261552
        },
        {
            "buffer" : 0,
            "byteLength" : 87184,
            "byteOffset" : 348736
        },
        {
            "buffer" : 0,
            "byteLength" : 30732,
            "byteOffset" : 435920
        },
        {
            "buffer" : 0,
            "byteLength" : 85656,
            "byteOffset" : 466652
        },
        {
            "buffer" : 0,
            "byteLength" : 85656,
            "byteOffset" : 552308
        },
        {
            "buffer" : 0,
            "byteLength" : 57104,
            "byteOffset" : 637964
        },
        {
            "buffer" : 0,
            "byteLength" : 57104,
            "byteOffset" : 695068
        },
        {
            "buffer" : 0,
            "byteLength" : 20880,
            "byteOffset" : 752172
        },
        {
            "buffer" : 0,
            "byteLength" : 2688,
            "byteOffset" : 773052
        },
        {
            "buffer" : 0,
            "byteLength" : 2688,
            "byteOffset" : 775740
        },
        {
            "buffer" : 0,
            "byteLength" : 1792,
            "byteOffset" : 778428
        },
        {
            "buffer" : 0,
            "byteLength" : 1792,
            "byteOffset" : 780220
        },
        {
            "buffer" : 0,
            "byteLength" : 648,
            "byteOffset" : 782012
        },
        {
            "buffer" : 0,
            "byteLength" : 864,
            "byteOffset" : 782660
        },
        {
            "buffer" : 0,
            "byteLength" : 864,
            "byteOffset" : 783524
        },
        {
            "buffer" : 0,
            "byteLength" : 576,
            "byteOffset" : 784388
        },
        {
            "buffer" : 0,
            "byteLength" : 576,
            "byteOffset" : 784964
        },
        {
            "buffer" : 0,
            "byteLength" : 216,
            "byteOffset" : 785540
        }
    ],
    "buffers" : [
        {
            "byteLength" : 785756,
            "uri" : "data:application/octet-stream;base64,"
        }
    ]
}
