{
    "asset" : {
        "generator" : "Khronos glTF Blender I/O v1.3.48",
        "version" : "2.0"
    },
    "scene" : 0,
    "scenes" : [
        {
            "name" : "Scene",
            "nodes" : [
                0
            ]
        }
    ],
    "nodes" : [
        {
            "mesh" : 0,
            "name" : "Toyota Hilux"
        }
    ],
    "materials" : [
        {
            "doubleSided" : true,
            "emissiveFactor" : [
                0,
                0,
                0
            ],
            "name" : "OEM product",
            "pbrMetallicRoughness" : {
                "baseColorFactor" : [
                    0.800000011920929,
                    0.800000011920929,
                    0.800000011920929,
                    1
                ],
                "metallicFactor" : 0,
                "roughnessFactor" : 0.5
            }
        }
    ],
    "meshes" : [
        {
            "name" : "Cylinder",
            "primitives" : [
                {
                    "attributes" : {
                        "POSITION" : 0,
                        "NORMAL" : 1,
                        "TEXCOORD_0" : 2,
                        "TEXCOORD_1" : 3
                    },
                    "indices" : 4,
                    "material" : 0
                }
            ]
        }
    ],
    "accessors" : [
        {
            "bufferView" : 0,
            "componentType" : 5126,
            "count" : 1262,
            "max" : [
                0.835482120513916,
                1.7278226613998413,
                2.574439287185669
            ],
            "min" : [
                -1.028048038482666,
                -0.10937026143074036,
                -2.7154862880706787
            ],
            "type" : "VEC3"
        },
        {
            "bufferView" : 1,
            "componentType" : 5126,
            "count" : 1262,
            "type" : "VEC3"
        },
        {
            "bufferView" : 2,
            "componentType" : 5126,
            "count" : 1262,
            "type" : "VEC2"
        },
        {
            "bufferView" : 3,
            "componentType" : 5126,
            "count" : 1262,
            "type" : "VEC2"
        },
        {
            "bufferView" : 4,
            "componentType" : 5123,
            "count" : 2004,
            "type" : "SCALAR"
        }
    ],
    "bufferViews" : [
        {
            "buffer" : 0,
            "byteLength" : 15144,
            "byteOffset" : 0
        },
        {
            "buffer" : 0,
            "byteLength" : 15144,
            "byteOffset" : 15144
        },
        {
            "buffer" : 0,
            "byteLength" : 10096,
            "byteOffset" : 30288
        },
        {
            "buffer" : 0,
            "byteLength" : 10096,
            "byteOffset" : 40384
        },
        {
            "buffer" : 0,
            "byteLength" : 4008,
            "byteOffset" : 50480
        }
    ],
    "buffers" : [
        {
            "byteLength" : 54488,
            "uri" : "data:application/octet-stream;base64,"
        }
    ]
}
