{
    "asset" : {
        "generator" : "Khronos glTF Blender I/O v1.3.48",
        "version" : "2.0"
    },
    "scene" : 0,
    "scenes" : [
        {
            "name" : "Scene",
            "nodes" : [
                0
            ]
        }
    ],
    "nodes" : [
        {
            "mesh" : 0,
            "name" : "T35"
        }
    ],
    "materials" : [
        {
            "doubleSided" : true,
            "emissiveFactor" : [
                0,
                0,
                0
            ],
            "name" : "Metal",
            "pbrMetallicRoughness" : {
                "baseColorFactor" : [
                    0.800000011920929,
                    0.800000011920929,
                    0.800000011920929,
                    1
                ],
                "metallicFactor" : 0,
                "roughnessFactor" : 0.5
            }
        },
        {
            "doubleSided" : true,
            "emissiveFactor" : [
                0,
                0,
                0
            ],
            "name" : "Black",
            "pbrMetallicRoughness" : {
                "baseColorFactor" : [
                    0.11068911105394363,
                    0.11068911105394363,
                    0.11068911105394363,
                    1
                ],
                "metallicFactor" : 0,
                "roughnessFactor" : 0.5
            }
        },
        {
            "doubleSided" : true,
            "emissiveFactor" : [
                0,
                0,
                0
            ],
            "name" : "Epiroc Grey",
            "pbrMetallicRoughness" : {
                "baseColorFactor" : [
                    0.25999999046325684,
                    0.33000001311302185,
                    0.38999998569488525,
                    1
                ],
                "metallicFactor" : 0,
                "roughnessFactor" : 0.5
            }
        },
        {
            "doubleSided" : true,
            "emissiveFactor" : [
                0,
                0,
                0
            ],
            "name" : "Epiroc Yellow",
            "pbrMetallicRoughness" : {
                "baseColorFactor" : [
                    1,
                    0.7799999713897705,
                    0.17000000178813934,
                    1
                ],
                "metallicFactor" : 0,
                "roughnessFactor" : 0.5
            }
        }
    ],
    "meshes" : [
        {
            "name" : "Cylinder.012",
            "primitives" : [
                {
                    "attributes" : {
                        "POSITION" : 0,
                        "NORMAL" : 1,
                        "TEXCOORD_0" : 2,
                        "TEXCOORD_1" : 3
                    },
                    "indices" : 4,
                    "material" : 0
                },
                {
                    "attributes" : {
                        "POSITION" : 5,
                        "NORMAL" : 6,
                        "TEXCOORD_0" : 7,
                        "TEXCOORD_1" : 8
                    },
                    "indices" : 9,
                    "material" : 1
                },
                {
                    "attributes" : {
                        "POSITION" : 10,
                        "NORMAL" : 11,
                        "TEXCOORD_0" : 12,
                        "TEXCOORD_1" : 13
                    },
                    "indices" : 14,
                    "material" : 2
                },
                {
                    "attributes" : {
                        "POSITION" : 15,
                        "NORMAL" : 16,
                        "TEXCOORD_0" : 17,
                        "TEXCOORD_1" : 18
                    },
                    "indices" : 19,
                    "material" : 3
                }
            ]
        }
    ],
    "accessors" : [
        {
            "bufferView" : 0,
            "componentType" : 5126,
            "count" : 248,
            "max" : [
                0.4200984537601471,
                7.929534912109375,
                4.742179870605469
            ],
            "min" : [
                -0.5324000120162964,
                -0.023724079132080078,
                1.145499587059021
            ],
            "type" : "VEC3"
        },
        {
            "bufferView" : 1,
            "componentType" : 5126,
            "count" : 248,
            "type" : "VEC3"
        },
        {
            "bufferView" : 2,
            "componentType" : 5126,
            "count" : 248,
            "type" : "VEC2"
        },
        {
            "bufferView" : 3,
            "componentType" : 5126,
            "count" : 248,
            "type" : "VEC2"
        },
        {
            "bufferView" : 4,
            "componentType" : 5123,
            "count" : 402,
            "type" : "SCALAR"
        },
        {
            "bufferView" : 5,
            "componentType" : 5126,
            "count" : 220,
            "max" : [
                1.123979926109314,
                3.0756771564483643,
                3.170654058456421
            ],
            "min" : [
                -0.5219540596008301,
                1.041656732559204,
                -0.9270615577697754
            ],
            "type" : "VEC3"
        },
        {
            "bufferView" : 6,
            "componentType" : 5126,
            "count" : 220,
            "type" : "VEC3"
        },
        {
            "bufferView" : 7,
            "componentType" : 5126,
            "count" : 220,
            "type" : "VEC2"
        },
        {
            "bufferView" : 8,
            "componentType" : 5126,
            "count" : 220,
            "type" : "VEC2"
        },
        {
            "bufferView" : 9,
            "componentType" : 5123,
            "count" : 378,
            "type" : "SCALAR"
        },
        {
            "bufferView" : 10,
            "componentType" : 5126,
            "count" : 2070,
            "max" : [
                1.2493878602981567,
                7.348837852478027,
                4.865504741668701
            ],
            "min" : [
                -1.1387499570846558,
                0.016741394996643066,
                -4.000242710113525
            ],
            "type" : "VEC3"
        },
        {
            "bufferView" : 11,
            "componentType" : 5126,
            "count" : 2070,
            "type" : "VEC3"
        },
        {
            "bufferView" : 12,
            "componentType" : 5126,
            "count" : 2070,
            "type" : "VEC2"
        },
        {
            "bufferView" : 13,
            "componentType" : 5126,
            "count" : 2070,
            "type" : "VEC2"
        },
        {
            "bufferView" : 14,
            "componentType" : 5123,
            "count" : 3060,
            "type" : "SCALAR"
        },
        {
            "bufferView" : 15,
            "componentType" : 5126,
            "count" : 486,
            "max" : [
                1.1777313947677612,
                8.053327560424805,
                4.809096813201904
            ],
            "min" : [
                -1.0670933723449707,
                -0.03581218793988228,
                -3.074000835418701
            ],
            "type" : "VEC3"
        },
        {
            "bufferView" : 16,
            "componentType" : 5126,
            "count" : 486,
            "type" : "VEC3"
        },
        {
            "bufferView" : 17,
            "componentType" : 5126,
            "count" : 486,
            "type" : "VEC2"
        },
        {
            "bufferView" : 18,
            "componentType" : 5126,
            "count" : 486,
            "type" : "VEC2"
        },
        {
            "bufferView" : 19,
            "componentType" : 5123,
            "count" : 732,
            "type" : "SCALAR"
        }
    ],
    "bufferViews" : [
        {
            "buffer" : 0,
            "byteLength" : 2976,
            "byteOffset" : 0
        },
        {
            "buffer" : 0,
            "byteLength" : 2976,
            "byteOffset" : 2976
        },
        {
            "buffer" : 0,
            "byteLength" : 1984,
            "byteOffset" : 5952
        },
        {
            "buffer" : 0,
            "byteLength" : 1984,
            "byteOffset" : 7936
        },
        {
            "buffer" : 0,
            "byteLength" : 804,
            "byteOffset" : 9920
        },
        {
            "buffer" : 0,
            "byteLength" : 2640,
            "byteOffset" : 10724
        },
        {
            "buffer" : 0,
            "byteLength" : 2640,
            "byteOffset" : 13364
        },
        {
            "buffer" : 0,
            "byteLength" : 1760,
            "byteOffset" : 16004
        },
        {
            "buffer" : 0,
            "byteLength" : 1760,
            "byteOffset" : 17764
        },
        {
            "buffer" : 0,
            "byteLength" : 756,
            "byteOffset" : 19524
        },
        {
            "buffer" : 0,
            "byteLength" : 24840,
            "byteOffset" : 20280
        },
        {
            "buffer" : 0,
            "byteLength" : 24840,
            "byteOffset" : 45120
        },
        {
            "buffer" : 0,
            "byteLength" : 16560,
            "byteOffset" : 69960
        },
        {
            "buffer" : 0,
            "byteLength" : 16560,
            "byteOffset" : 86520
        },
        {
            "buffer" : 0,
            "byteLength" : 6120,
            "byteOffset" : 103080
        },
        {
            "buffer" : 0,
            "byteLength" : 5832,
            "byteOffset" : 109200
        },
        {
            "buffer" : 0,
            "byteLength" : 5832,
            "byteOffset" : 115032
        },
        {
            "buffer" : 0,
            "byteLength" : 3888,
            "byteOffset" : 120864
        },
        {
            "buffer" : 0,
            "byteLength" : 3888,
            "byteOffset" : 124752
        },
        {
            "buffer" : 0,
            "byteLength" : 1464,
            "byteOffset" : 128640
        }
    ],
    "buffers" : [
        {
            "byteLength" : 130104,
            "uri" : "data:application/octet-stream;base64,"
        }
    ]
}
